<?xml version="1.0" standalone="no"?>
<!DOCTYPE svg PUBLIC "-//W3C//DTD SVG 20010904//EN"
 "http://www.w3.org/TR/2001/REC-SVG-20010904/DTD/svg10.dtd">
<svg version="1.0" xmlns="http://www.w3.org/2000/svg"
 width="1181.000000pt" height="1181.000000pt" viewBox="0 0 1181.000000 1181.000000"
 preserveAspectRatio="xMidYMid meet">
<metadata>
Created by potrace 1.14, written by Peter Selinger 2001-2017
</metadata>
<g transform="translate(0.000000,1181.000000) scale(0.100000,-0.100000)"
fill="#000000" stroke="none">
<path d="M5589 11146 c-2 -2 -42 -6 -89 -10 -138 -9 -203 -15 -235 -21 -16 -3
-64 -9 -105 -15 -41 -5 -86 -12 -100 -14 -14 -2 -59 -10 -100 -17 -41 -7 -77
-13 -80 -14 -3 -1 -32 -7 -65 -14 -68 -15 -221 -52 -310 -76 -159 -42 -545
-178 -683 -241 -29 -13 -55 -24 -58 -24 -7 0 -348 -171 -394 -197 -19 -11 -66
-39 -105 -61 -189 -109 -515 -329 -601 -407 -6 -5 -29 -23 -50 -40 -268 -210
-617 -565 -856 -871 -149 -191 -328 -462 -448 -679 -40 -72 -200 -393 -200
-401 0 -3 -12 -31 -26 -62 -30 -65 -82 -195 -94 -232 -5 -14 -26 -76 -49 -138
-70 -196 -176 -597 -196 -742 -3 -25 -8 -52 -11 -61 -2 -9 -7 -34 -9 -55 -3
-22 -12 -86 -20 -144 -35 -259 -40 -341 -40 -715 0 -333 7 -480 29 -620 3 -16
8 -57 11 -90 4 -33 8 -67 10 -75 3 -8 7 -33 10 -55 21 -148 93 -463 145 -635
18 -58 36 -121 42 -140 10 -35 72 -208 88 -245 4 -11 22 -56 40 -100 17 -44
42 -104 56 -133 13 -29 24 -55 24 -58 0 -8 156 -319 188 -374 95 -166 207
-346 286 -460 57 -83 136 -190 146 -200 3 -3 39 -48 81 -100 223 -278 467
-524 758 -765 13 -11 38 -32 55 -46 17 -14 78 -60 136 -102 58 -42 110 -81
116 -86 21 -17 190 -129 274 -181 224 -138 563 -308 790 -397 163 -63 384
-141 424 -149 11 -2 40 -10 65 -18 78 -26 323 -86 411 -102 14 -3 57 -11 95
-19 85 -17 114 -22 184 -30 30 -4 63 -9 75 -11 12 -3 50 -7 86 -10 36 -2 76
-7 90 -9 71 -13 280 -20 585 -19 298 1 389 5 565 29 19 2 58 7 85 10 63 8 325
52 385 65 25 6 83 20 130 31 47 12 96 23 109 26 14 2 28 6 33 9 4 3 16 7 27 9
87 17 379 116 596 203 420 168 917 459 1266 741 31 26 71 57 89 71 18 14 37
30 44 35 220 198 351 325 491 479 44 48 95 104 114 124 18 20 51 60 72 87 21
28 74 97 119 155 73 94 310 441 310 454 0 3 13 24 29 48 70 105 249 463 327
655 19 49 39 97 43 108 5 11 23 61 41 110 17 50 39 110 48 135 9 25 17 53 19
63 2 9 12 44 23 77 29 86 115 439 135 555 10 55 20 109 22 120 5 31 24 160 28
202 2 21 7 67 10 103 4 35 9 73 12 85 10 42 13 734 3 840 -20 214 -48 454 -55
465 -2 4 -7 29 -10 56 -4 27 -10 65 -15 84 -5 19 -12 51 -15 70 -26 151 -131
532 -191 693 -8 20 -20 54 -28 75 -12 31 -56 142 -87 217 -38 92 -170 366
-220 455 -42 75 -54 96 -118 207 -49 84 -205 316 -270 401 -31 41 -63 83 -71
95 -17 25 -87 113 -113 142 -10 11 -35 40 -55 64 -199 240 -613 625 -865 805
-14 10 -56 42 -93 72 -37 29 -70 52 -73 51 -3 -1 -44 24 -91 56 -351 240 -906
499 -1350 631 -222 66 -567 142 -750 166 -47 6 -96 13 -110 15 -14 2 -56 6
-95 10 -38 3 -83 8 -100 11 -35 7 -769 16 -776 10z"/>
</g>
</svg>
